HIERARCHY
ROOT Hips
{
	OFFSET 4.076200 -17.275196 43.303001
	CHANNELS 6 Xposition Yposition Zposition Zrotation Xrotation Yrotation
	JOINT Chest
	{
		OFFSET -0.689800 0.941999 5.341000
		CHANNELS 6 Xposition Yposition Zposition Zrotation Xrotation Yrotation
		JOINT Chest2
		{
			OFFSET 0.000000 0.000000 4.278900
			CHANNELS 6 Xposition Yposition Zposition Zrotation Xrotation Yrotation
			JOINT Neck
			{
				OFFSET 0.000000 0.000000 9.970299
				CHANNELS 6 Xposition Yposition Zposition Zrotation Xrotation Yrotation
				JOINT Head
				{
					OFFSET 0.000000 0.000002 2.173901
					CHANNELS 6 Xposition Yposition Zposition Zrotation Xrotation Yrotation
					End Site
					{
						OFFSET 0.000000 0.000000 6.488197
					}
				}
			}
			JOINT LeftCollar
			{
				OFFSET 2.472300 -0.285801 5.433899
				CHANNELS 6 Xposition Yposition Zposition Zrotation Xrotation Yrotation
				JOINT LeftShoulder
				{
					OFFSET 5.327700 0.000000 0.000000
					CHANNELS 6 Xposition Yposition Zposition Zrotation Xrotation Yrotation
					JOINT LeftElbow
					{
						OFFSET 0.000000 0.000000 -10.713001
						CHANNELS 6 Xposition Yposition Zposition Zrotation Xrotation Yrotation
						JOINT LeftWrist
						{
							OFFSET 0.000000 -0.000002 -13.396900
							CHANNELS 6 Xposition Yposition Zposition Zrotation Xrotation Yrotation
							End Site
							{
								OFFSET 0.000000 0.000000 -2.173901
							}
						}
					}
				}
			}
			JOINT RightCollar
			{
				OFFSET -2.589400 -1.358400 6.105000
				CHANNELS 6 Xposition Yposition Zposition Zrotation Xrotation Yrotation
				JOINT RightShoulder
				{
					OFFSET -4.580200 0.000000 0.000000
					CHANNELS 6 Xposition Yposition Zposition Zrotation Xrotation Yrotation
					JOINT RightElbow
					{
						OFFSET 0.000000 0.000000 -10.761101
						CHANNELS 6 Xposition Yposition Zposition Zrotation Xrotation Yrotation
						JOINT RightWrist
						{
							OFFSET 0.000000 -0.000002 -13.028500
							CHANNELS 6 Xposition Yposition Zposition Zrotation Xrotation Yrotation
							End Site
							{
								OFFSET 0.000000 0.000000 -2.173901
							}
						}
					}
				}
			}
		}
	}
	JOINT LeftHip
	{
		OFFSET 2.532500 0.486900 -2.489700
		CHANNELS 6 Xposition Yposition Zposition Zrotation Xrotation Yrotation
		JOINT LeftKnee
		{
			OFFSET 0.000000 -0.000002 -18.199398
			CHANNELS 6 Xposition Yposition Zposition Zrotation Xrotation Yrotation
			JOINT LeftAnkle
			{
				OFFSET 0.000000 -0.000002 -16.083900
				CHANNELS 6 Xposition Yposition Zposition Zrotation Xrotation Yrotation
				End Site
				{
					OFFSET 0.000000 -8.641399 0.000000
				}
			}
		}
	}
	JOINT RightHip
	{
		OFFSET -2.112700 -0.049900 -2.711102
		CHANNELS 6 Xposition Yposition Zposition Zrotation Xrotation Yrotation
		JOINT RightKnee
		{
			OFFSET 0.000000 -0.000002 -19.127298
			CHANNELS 6 Xposition Yposition Zposition Zrotation Xrotation Yrotation
			JOINT RightAnkle
			{
				OFFSET 0.000000 -0.000002 -14.874901
				CHANNELS 6 Xposition Yposition Zposition Zrotation Xrotation Yrotation
				End Site
				{
					OFFSET 0.000000 -8.198299 0.000000
				}
			}
		}
	}
}
MOTION
Frames: 4
Frame Time: 0.041667
76.082092 -34.494591 37.128502 -83.259398 41.890551 20.758208 -0.689799 0.941997 5.340994 -23.747938 -20.035125 8.755076 0.000006 0.000010 4.278899 7.330660 -2.854109 -0.406182 -0.000007 -0.000006 9.970292 -38.807892 2.037687 -12.475916 0.000000 0.000006 2.173895 -3.864132 1.620866 -7.847323 2.472299 -0.285815 5.433904 -24.926692 14.320027 -4.274568 5.327702 0.000010 0.000001 1203.371360 -108.559436 1190.731248 0.000004 0.000003 -10.713001 239.658060 -171.259986 198.853649 -0.000002 0.000002 -13.396897 186.818665 -177.084921 147.139910 -2.589406 -1.358409 6.105001 25.052924 16.486857 -10.724473 -4.580192 -0.000001 0.000000 -687.235056 -31.891635 -627.150155 0.000006 -0.000004 -10.761099 60.699932 -124.528733 33.289639 0.000009 0.000002 -13.028496 787.316452 -531.251731 855.653314 2.532501 0.486894 -2.489702 -575.304757 -31.292635 65.459099 -0.000002 -0.000004 -18.199400 572.194672 541.662524 -200.014618 0.000003 -0.000005 -16.083897 5.813056 106.349406 239.140086 -2.112699 -0.049904 -2.711101 -66.800760 -39.911005 -77.650092 -0.000003 -0.000004 -19.127300 1161.143852 68.674424 -1135.265959 0.000002 -0.000003 -14.874904 142.032035 171.473183 205.651067
76.065208 -34.501190 37.124401 -83.181971 42.002187 20.704593 -0.689800 0.941997 5.340986 -23.773255 -20.035998 8.724366 -0.000000 0.000007 4.278897 7.267922 -2.907224 -0.414236 -0.000000 -0.000000 9.970303 -38.882440 2.251877 -12.556605 0.000002 0.000005 2.173896 -3.844017 1.695516 -7.918951 2.472297 -0.285801 5.433905 -24.842766 14.384607 -3.988065 5.327703 0.000008 0.000004 1203.455836 -108.625211 1190.986643 -0.000002 0.000002 -10.712997 240.439434 -171.120090 199.655650 0.000003 -0.000004 -13.396894 186.896529 -176.928701 147.519915 -2.589400 -1.358397 6.105009 25.359743 16.909600 -10.472192 -4.580197 -0.000009 0.000005 -687.787482 -32.666387 -628.144303 0.000000 -0.000009 -10.761110 60.641295 -124.506029 33.055428 0.000006 0.000001 -13.028497 787.072314 -531.518600 855.497586 2.532499 0.486895 -2.489710 -575.300386 -31.266086 65.331128 -0.000010 -0.000001 -18.199402 572.084733 541.368006 -199.870596 -0.000001 0.000006 -16.083906 6.136343 106.394874 239.106700 -2.112697 -0.049915 -2.711106 -67.008090 -39.856609 -77.742087 -0.000001 0.000002 -19.127296 1161.060688 68.777826 -1135.198095 0.000000 -0.000011 -14.874895 142.139365 171.511132 205.713960
76.045998 -34.511593 37.121700 -83.137404 42.022121 20.599425 -0.689802 0.942007 5.340991 -23.662789 -19.994684 8.793883 0.000001 0.000002 4.278907 7.202904 -2.932822 -0.417241 -0.000003 -0.000013 9.970291 -38.927318 2.482998 -12.674102 0.000000 -0.000001 2.173896 -3.832588 1.733941 -8.063231 2.472303 -0.285811 5.433897 -24.729127 14.315482 -3.735231 5.327706 -0.000005 -0.000003 1203.754179 -108.519582 1191.567591 0.000002 0.000005 -10.712999 241.056309 -171.002023 200.331771 0.000004 0.000001 -13.396906 186.808201 -176.799078 148.037288 -2.589396 -1.358409 6.104992 26.046365 18.560539 -9.532755 -4.580206 0.000006 0.000006 -688.978339 -35.380114 -629.718088 0.000005 -0.000002 -10.761103 59.522756 -124.177060 31.428473 0.000001 0.000003 -13.028497 786.079805 -531.817162 855.493105 2.532494 0.486902 -2.489700 -575.306451 -31.246015 65.088629 -0.000002 -0.000001 -18.199396 572.121452 541.142993 -199.683080 0.000007 0.000001 -16.083902 5.998961 106.400140 239.234370 -2.112700 -0.049890 -2.711113 -67.074309 -39.853163 -77.688013 -0.000001 -0.000008 -19.127293 1161.007248 68.853184 -1135.173943 -0.000000 -0.000007 -14.874895 142.234250 171.555186 205.769394
76.032097 -34.519791 37.118504 -83.075400 42.105053 20.577535 -0.689790 0.941988 5.340989 -23.773580 -19.999535 8.719398 -0.000003 -0.000010 4.278905 7.217870 -2.908190 -0.412175 -0.000003 0.000000 9.970299 -38.832982 2.687053 -12.907164 -0.000004 -0.000004 2.173898 -3.857013 1.728569 -8.190608 2.472299 -0.285806 5.433901 -24.493808 14.049622 -3.915966 5.327704 -0.000002 0.000006 1205.787061 -107.805445 1194.015422 0.000000 -0.000005 -10.713011 241.365498 -170.949663 201.108541 0.000003 0.000004 -13.396895 186.567136 -176.626971 148.813498 -2.589403 -1.358399 6.105000 26.463974 19.091233 -8.375799 -4.580200 -0.000010 0.000002 -690.644031 -37.327274 -632.185152 0.000010 0.000000 -10.761095 60.675842 -124.564223 31.525315 0.000004 0.000010 -13.028502 786.291596 -532.004855 855.859750 2.532505 0.486889 -2.489711 -575.181595 -31.117522 65.068057 -0.000001 -0.000007 -18.199400 571.997525 540.898854 -199.575286 -0.000004 0.000012 -16.083900 6.011943 106.387067 239.215409 -2.112696 -0.049912 -2.711109 -67.259817 -39.797333 -77.767550 -0.000003 0.000001 -19.127296 1160.977523 68.928609 -1135.175473 -0.000007 -0.000008 -14.874894 142.326772 171.598900 205.799241
